#N canvas 1125 42 630 417 10;
#X msg 150 158 disconnect;
#X obj 62 263 sendOSC;
#X msg 62 120 connect 127.0.0.1 12000;
#X floatatom 323 127 5 0 0 0 - - -;
#X floatatom 355 169 5 0 0 0 - - -;
#X floatatom 388 125 5 0 0 0 - - -;
#X obj 323 316 print;
#X msg 172 247 send /test \$1 \$2 \$3;
#X obj 257 182 bang;
#X text 60 63 connect to a remote address (127.0.0.1) that is listening
on udp networkport 12000 for incoming osc messages. click the connect
button below to activate the connection.;
#X obj 323 198 pack f f f;
#X obj 529 199 OSCroute /test;
#X obj 529 127 dumpOSC 12001;
#X obj 622 243 print "received_something_else";
#X text 527 101 dunoOSC listens for incoming messages in PD;
#X obj 413 261 print "Danny" \$1;
#N canvas 1122 316 786 616 drumsethp 1;
#X obj 946 749 readsf~;
#X msg -7 543 open Hhopkit/808-kick.wav \, 1;
#X msg 3 520 open Hhopkit/bap.wav \, 1;
#X msg 55 497 open Hhopkit/clock.wav \, 1;
#X msg 174 545 open Hhopkit/drop-kick.wav \, 1;
#X msg 191 524 open Hhopkit/grungy-kick.wav \, 1;
#X obj 12 425 == 1;
#X obj 68 465 spigot;
#X obj 133 458 spigot;
#X obj 191 461 spigot;
#X obj 238 458 spigot;
#X obj 3 460 spigot;
#X obj 71 436 == 2;
#X obj 145 425 == 3;
#X obj 207 423 == 4;
#X obj 246 419 == 5;
#X obj 462 134 inlet;
#X obj 509 811 outlet~;
#X msg 229 501 open Hhopkit/kick-punch.wav \, 1;
#X msg 277 479 open Hhopkit/long-8bit.wav \, 1;
#X msg 314 564 open Hhopkit/middle-bap.wav \, 1;
#X msg 358 545 open Hhopkit/middle-kick.wav \, 1;
#X obj 294 420 == 6;
#X obj 331 419 == 7;
#X obj 368 417 == 8;
#X obj 403 417 == 9;
#X obj 439 417 == 10;
#X obj 480 415 == 11;
#X obj 519 392 == 12;
#X obj 560 413 == 13;
#X obj 600 414 == 14;
#X obj 637 413 == 15;
#X obj 333 452 spigot;
#X obj 380 453 spigot;
#X obj 424 450 spigot;
#X obj 469 452 spigot;
#X obj 287 456 spigot;
#X obj 559 453 spigot;
#X obj 606 456 spigot;
#X obj 650 457 spigot;
#X obj 694 458 spigot;
#X obj 516 452 spigot;
#X obj 736 456 spigot;
#X obj 780 457 spigot;
#X obj 824 458 spigot;
#X msg 463 480 open Hhopkit/round-kick.wav \, 1;
#X msg 413 504 open Hhopkit/pond-drop.wav \, 1;
#X msg 657 478 open Hhopkit/thick-kick.wav \, 1;
#X msg 583 503 open Hhopkit/thick-bap.wav \, 1;
#X msg 590 525 open Hhopkit/tabla-hit.wav \, 1;
#X msg 548 550 open Hhopkit/snappin-bap.wav \, 1;
#X msg 504 570 open Hhopkit/say-bow-beep.wav \, 1;
#X msg 712 572 open Hhopkit/throw-your-middle-finger.wav \, 1;
#X msg 772 543 open Hhopkit/thud-kick.wav \, 1;
#X msg 390 523 open Hhopkit/noise-808-kick.wav \, 1;
#X obj 679 415 == 16;
#X obj 727 416 == 17;
#X obj 770 416 == 18;
#X obj 7 726 readsf~;
#X obj 58 728 readsf~;
#X obj 112 728 readsf~;
#X obj 162 732 readsf~;
#X obj 213 734 readsf~;
#X obj 267 734 readsf~;
#X obj 313 735 readsf~;
#X obj 364 737 readsf~;
#X obj 418 737 readsf~;
#X obj 468 741 readsf~;
#X obj 519 743 readsf~;
#X obj 575 739 readsf~;
#X obj 628 738 readsf~;
#X obj 679 740 readsf~;
#X obj 733 740 readsf~;
#X obj 784 743 readsf~;
#X obj 835 745 readsf~;
#X obj 889 745 readsf~;
#X obj 996 740 readsf~;
#X connect 0 0 17 0;
#X connect 1 0 58 0;
#X connect 2 0 59 0;
#X connect 3 0 60 0;
#X connect 4 0 61 0;
#X connect 5 0 62 0;
#X connect 6 0 11 0;
#X connect 6 0 11 1;
#X connect 7 0 2 0;
#X connect 8 0 3 0;
#X connect 9 0 4 0;
#X connect 10 0 5 0;
#X connect 11 0 1 0;
#X connect 12 0 7 0;
#X connect 12 0 7 1;
#X connect 13 0 8 0;
#X connect 13 0 8 1;
#X connect 14 0 9 0;
#X connect 14 0 9 1;
#X connect 15 0 10 0;
#X connect 15 0 10 1;
#X connect 16 0 6 0;
#X connect 16 0 12 0;
#X connect 16 0 13 0;
#X connect 16 0 14 0;
#X connect 16 0 15 0;
#X connect 16 0 22 0;
#X connect 16 0 23 0;
#X connect 16 0 24 0;
#X connect 16 0 25 0;
#X connect 16 0 26 0;
#X connect 16 0 27 0;
#X connect 16 0 28 0;
#X connect 16 0 29 0;
#X connect 16 0 30 0;
#X connect 16 0 31 0;
#X connect 16 0 55 0;
#X connect 16 0 56 0;
#X connect 16 0 57 0;
#X connect 18 0 63 0;
#X connect 19 0 64 0;
#X connect 20 0 65 0;
#X connect 21 0 66 0;
#X connect 22 0 36 0;
#X connect 22 0 36 1;
#X connect 23 0 32 0;
#X connect 23 0 32 1;
#X connect 24 0 33 0;
#X connect 24 0 33 1;
#X connect 25 0 34 0;
#X connect 25 0 34 1;
#X connect 26 0 35 0;
#X connect 26 0 35 1;
#X connect 27 0 41 0;
#X connect 27 0 41 1;
#X connect 28 0 37 0;
#X connect 28 0 37 1;
#X connect 29 0 38 0;
#X connect 29 0 38 1;
#X connect 30 0 39 0;
#X connect 30 0 39 1;
#X connect 31 0 40 0;
#X connect 31 0 40 1;
#X connect 32 0 19 0;
#X connect 33 0 20 0;
#X connect 34 0 21 0;
#X connect 35 0 54 0;
#X connect 36 0 18 0;
#X connect 37 0 45 0;
#X connect 38 0 51 0;
#X connect 38 0 50 0;
#X connect 39 0 49 0;
#X connect 40 0 48 0;
#X connect 41 0 46 0;
#X connect 42 0 47 0;
#X connect 43 0 52 0;
#X connect 44 0 53 0;
#X connect 45 0 69 0;
#X connect 46 0 68 0;
#X connect 47 0 74 0;
#X connect 48 0 73 0;
#X connect 49 0 72 0;
#X connect 50 0 71 0;
#X connect 51 0 70 0;
#X connect 52 0 0 0;
#X connect 53 0 76 0;
#X connect 54 0 67 0;
#X connect 55 0 42 0;
#X connect 55 0 42 1;
#X connect 56 0 43 0;
#X connect 56 0 43 1;
#X connect 57 0 44 0;
#X connect 57 0 44 1;
#X connect 58 0 17 0;
#X connect 59 0 17 0;
#X connect 60 0 17 0;
#X connect 61 0 17 0;
#X connect 62 0 17 0;
#X connect 63 0 17 0;
#X connect 64 0 17 0;
#X connect 65 0 17 0;
#X connect 66 0 17 0;
#X connect 67 0 17 0;
#X connect 68 0 17 0;
#X connect 69 0 17 0;
#X connect 70 0 17 0;
#X connect 71 0 17 0;
#X connect 72 0 17 0;
#X connect 73 0 17 0;
#X connect 74 0 17 0;
#X connect 75 0 17 0;
#X connect 76 0 17 0;
#X restore 530 372 pd drumsethp;
#X obj 533 451 dac~;
#X obj 529 261 unpack f;
#X floatatom 530 341 5 0 0 0 - - -;
#X floatatom 574 314 5 0 0 0 - - -;
#X text 638 289 delay 1 millisecond before flushing the value sent
by Processing;
#X obj 580 288 delay 1;
#X connect 0 0 1 0;
#X connect 2 0 1 0;
#X connect 3 0 10 0;
#X connect 4 0 8 0;
#X connect 4 0 10 1;
#X connect 5 0 8 0;
#X connect 5 0 10 2;
#X connect 7 0 1 0;
#X connect 8 0 10 0;
#X connect 10 0 6 0;
#X connect 10 0 7 0;
#X connect 11 0 15 0;
#X connect 11 0 18 0;
#X connect 11 1 13 0;
#X connect 12 0 11 0;
#X connect 16 0 17 0;
#X connect 16 0 17 1;
#X connect 18 0 19 0;
#X connect 18 0 22 0;
#X connect 19 0 16 0;
#X connect 20 0 19 0;
#X connect 22 0 20 0;
